<?xml version="1.0" encoding="iso-8859-1"?>
<!-- Generator: Adobe Illustrator 19.1.0, SVG Export Plug-In . SVG Version: 6.00 Build 0)  -->
<svg version="1.1" id="Capa_1" xmlns="http://www.w3.org/2000/svg" xmlns:xlink="http://www.w3.org/1999/xlink" x="0px" y="0px"
	 viewBox="0 0 459.512 459.512" style="enable-background:new 0 0 459.512 459.512;" xml:space="preserve">
<g id="XMLID_861_">
	<path d="M367.692,70.598l35.355-35.355l21.213,21.213l-35.355,35.355L367.692,70.598z"/>
	<path d="M339.789,0.008l27.717,11.481l-19.135,46.195l-27.717-11.481L339.789,0.008z"/>
	<path d="M401.836,111.139l46.195-19.135l11.481,27.717l-46.195,19.135L401.836,111.139z"/>
	<path id="XMLID_865_" d="M208.597,102.416C167.592,143.421,0,311.012,0,311.012l148.492,148.492
		c0,0,167.592-167.592,208.597-208.596c41.005-41.005,41.005-107.487,0-148.492S249.602,61.411,208.597,102.416z M176.777,353.439
		l-70.711-70.711l21.213-21.213l70.711,70.711L176.777,353.439z M219.203,311.012l-70.711-70.71l21.213-21.213l70.711,70.711
		L219.203,311.012z M335.876,229.695c-29.289,29.29-76.777,29.29-106.066,0c-29.289-29.289-29.289-76.777,0-106.066
		s76.777-29.289,106.066,0S365.165,200.406,335.876,229.695z"/>
	<circle id="XMLID_870_" cx="282.843" cy="176.662" r="45"/>
</g>
<g>
</g>
<g>
</g>
<g>
</g>
<g>
</g>
<g>
</g>
<g>
</g>
<g>
</g>
<g>
</g>
<g>
</g>
<g>
</g>
<g>
</g>
<g>
</g>
<g>
</g>
<g>
</g>
<g>
</g>
</svg>
